<?xml version="1.0" encoding="UTF-8" standalone="no"?><!DOCTYPE svg PUBLIC "-//W3C//DTD SVG 1.1//EN" "http://www.w3.org/Graphics/SVG/1.1/DTD/svg11.dtd"><svg width="100%" height="100%" viewBox="0 0 576 179" version="1.1" xmlns="http://www.w3.org/2000/svg" xmlns:xlink="http://www.w3.org/1999/xlink" xml:space="preserve" xmlns:serif="http://www.serif.com/" style="fill-rule:evenodd;clip-rule:evenodd;stroke-linejoin:round;stroke-miterlimit:2;"><path d="M148.6,78.9l-24.7,-13.6l-20.8,12.7l-0.3,13l-10.1,-6.7l-13.8,8.4c-0.2,-3.9 -0.4,-8.6 -0.6,-14.2l-14.2,-9.5c3.9,-2 8.4,-4.3 13.5,-7c-0.1,0 0.1,1.4 -2,-46.5l-32,-15.4l-43.6,13.6l9.7,46.9l14.6,11.4l-11.1,5.3l7.3,35.3l10.2,9.6l-7.3,4.5l5.7,27.3l22.9,24.3c0.1,-0.1 2.4,-1.9 29.5,-23.5l-0.8,-18.6l11.7,9.9c0.2,-0.2 2.4,-1.9 23.7,-18.8l0.8,-13.7l8.8,6.1c0.1,-0.2 2.1,-1.7 19.3,-15.3l3.6,-25.5Z" style="fill-rule:nonzero;"/><path d="M128.1,93.5l20.5,-14.6l-24.7,-13.6l-20.8,12.7l25,15.5Z" style="fill:#141414;fill-rule:nonzero;"/><path d="M125.8,119.5l2.3,-26l-25,-15.5l-0.5,25.4l23.2,16.1Z" style="fill:#004b16;fill-rule:nonzero;"/><path d="M92.6,146l-0.3,-27l-25.1,-19.1l1.9,26.4l23.5,19.7Z" style="fill:#004b16;fill-rule:nonzero;"/><path d="M92.3,119l25.5,-18.2l-25.1,-16.5l-25.5,15.6l25.1,19.1Z" style="fill:#141414;fill-rule:nonzero;"/><path d="M52.1,178.2l-4.1,-27.6l-24.6,-24.1l5.7,27.4l23,24.3Z" style="fill:#004b16;fill-rule:nonzero;"/><path d="M48,150.6l32.4,-23.1l-25.1,-20.4l-31.9,19.4l24.6,24.1Z" style="fill:#141414;fill-rule:nonzero;"/><path d="M45.9,136.3l-5.3,-36.4l-27.4,-22.8l7.3,35.4l25.4,23.8Z" style="fill:#004b16;fill-rule:nonzero;"/><path d="M40.6,99.9l37.7,-21.4l-28.2,-18.9l-36.9,17.5l27.4,22.8Z" style="fill:#141414;fill-rule:nonzero;"/><path d="M38,82.5l-7.3,-49.9l-30.7,-19l9.7,46.9l28.3,22Z" style="fill:#004b16;fill-rule:nonzero;"/><path d="M30.7,32.6l44.9,-17.2l-32,-15.4l-43.6,13.6l30.7,19Z" style="fill:#141414;fill-rule:nonzero;"/><g><path d="M145.2,104.2c-19,15.1 -19.4,15.4 -19.3,15.4c2.4,-27.2 2.2,-26 2.3,-26c21.8,-15.5 20.4,-14.6 20.5,-14.6l-3.5,25.2Z" style="fill:#1cb35c;fill-rule:nonzero;"/><path d="M116.2,127.2c-23.5,18.7 -23.8,18.8 -23.7,18.8c-0.2,-28.2 -0.3,-27 -0.2,-27c27.1,-19.4 25.4,-18.2 25.5,-18.2l-1.6,26.4Z" style="fill:#1cb35c;fill-rule:nonzero;"/><path d="M81.6,154.7c-29.4,23.3 -29.6,23.5 -29.5,23.5c-4.2,-28.4 -4.1,-27.5 -4,-27.5c34.5,-24.6 32.3,-23.1 32.4,-23.1l1.1,27.1Z" style="fill:#1cb35c;fill-rule:nonzero;"/><path d="M75.6,15.4c2.1,47.9 1.9,46.5 2,46.5c-38.8,20.2 -39.7,20.6 -39.6,20.6c-7.5,-51 -7.4,-49.9 -7.3,-49.9l44.9,-17.2Z" style="fill:#1cb35c;fill-rule:nonzero;"/><path d="M78.3,78.5c1.6,36.3 1.4,35.1 1.5,35.1c-33.6,22.6 -34,22.8 -33.9,22.8c-5.5,-37.4 -5.4,-36.4 -5.3,-36.4l37.7,-21.5Z" style="fill:#1cb35c;fill-rule:nonzero;"/></g><path d="M191.4,33.6l16.8,-4c0,81.8 -3.1,93.5 8,97.1c-2.6,4.9 -7.1,7.4 -13.3,7.4c-15.3,0 -11.5,-11.3 -11.5,-100.5Z" style="fill:#fff;fill-rule:nonzero;"/><path d="M233.7,132.7l0,-58.4l-9.2,0l0,-13.8l26.3,0l0,72.2l-17.1,0Zm8.7,-100.1c12.9,0 12.9,19.5 0,19.5c-12.9,0 -12.9,-19.5 0,-19.5Z" style="fill:#fff;fill-rule:nonzero;"/><path d="M316.8,132.7c0,-43.6 1.1,-49.6 -3.5,-55.2c-5.8,-6.9 -20,-5 -26.1,3l0,52.2l-16.8,0l0,-72.2l12.1,0l3.1,6.7c9.1,-10.8 30.4,-10.9 40.6,-0.4c9.7,10 7.4,20.5 7.4,65.8l-16.8,0.1Z" style="fill:#fff;fill-rule:nonzero;"/><path d="M347.2,96.4c0,-49.2 69.4,-51.1 69.4,0c-0.1,50.7 -69.4,50.8 -69.4,0Zm17.5,0c0,28.8 22.2,27.7 29.7,17.7c7,-9.4 8.8,-41.2 -12.5,-41.2c-12.3,0 -17.2,11.3 -17.2,23.5Z" style="fill:#fff;fill-rule:nonzero;"/><path d="M476.4,132.7c0,-7.4 1.8,-3.4 -7.1,-0.4c-10.2,3.5 -25.1,2 -34.1,-7.9c-11.1,-12.3 -12.6,-39.5 1.3,-54.6c11.4,-12.3 28.5,-13.1 39.9,-7.4l0,-28.9l16.9,-4l0,103.1l-16.9,0.1Zm0,-54.9c-8.9,-7.1 -20.9,-4.8 -26.8,1.9c-8.1,9.1 -11.2,40.2 16.2,40.2c2.9,0 9,-2.2 10.6,-4.4l0,-37.7Z" style="fill:#fff;fill-rule:nonzero;"/><path d="M574.6,101.8l-51.6,0c1.2,22.3 29,21.4 38.1,12.2l6.5,12.9c-14,11.3 -62.3,15 -62.3,-29.5c0.1,-54.1 81.3,-49 69.3,4.4Zm-51,-12.7l35.5,0c-1.2,-10.6 -7,-15.8 -17.5,-15.8c-9.7,0 -15.6,5.2 -18,15.8Z" style="fill:#fff;fill-rule:nonzero;"/></svg>